<svg xmlns="http://www.w3.org/2000/svg" xmlns:xlink="http://www.w3.org/1999/xlink" width="224.88" viewBox="0 0 224.88 75" height="75" version="1.0"><defs><g id="a"><path d="M 67.046875 -58.21875 C 70.078125 -55.4375 70.976562 -52.082031 69.75 -48.15625 C 69.519531 -47.476562 69.234375 -46.816406 68.890625 -46.171875 C 68.265625 -45.035156 67.546875 -43.96875 66.734375 -42.96875 C 65.921875 -41.976562 65.0625 -41.03125 64.15625 -40.125 C 63.539062 -39.476562 62.828125 -39.257812 62.015625 -39.46875 C 61.785156 -39.488281 61.632812 -39.601562 61.5625 -39.8125 C 61.519531 -40.019531 61.578125 -40.1875 61.734375 -40.3125 C 63.210938 -41.738281 64.507812 -43.320312 65.625 -45.0625 C 66.414062 -46.21875 66.992188 -47.46875 67.359375 -48.8125 C 68.242188 -52.445312 67.25 -55.441406 64.375 -57.796875 C 63.007812 -58.867188 61.484375 -59.625 59.796875 -60.0625 C 58.203125 -60.476562 56.601562 -60.75 55 -60.875 C 53.40625 -61.007812 51.796875 -61.019531 50.171875 -60.90625 C 47.703125 -60.757812 45.25 -60.472656 42.8125 -60.046875 C 40.382812 -59.617188 37.96875 -59.113281 35.5625 -58.53125 C 32.414062 -57.75 29.332031 -56.796875 26.3125 -55.671875 C 23.289062 -54.546875 20.363281 -53.207031 17.53125 -51.65625 C 14.78125 -50.1875 12.234375 -48.414062 9.890625 -46.34375 C 7.796875 -44.507812 6.078125 -42.363281 4.734375 -39.90625 C 3.015625 -36.632812 3.160156 -33.453125 5.171875 -30.359375 C 6.453125 -28.492188 7.976562 -26.84375 9.75 -25.40625 C 12.5 -23.132812 15.394531 -21.09375 18.4375 -19.28125 C 21.007812 -17.738281 23.578125 -16.21875 26.140625 -14.71875 C 27.847656 -13.738281 29.539062 -12.75 31.21875 -11.75 C 32.425781 -11.039062 33.609375 -10.3125 34.765625 -9.5625 C 35.921875 -8.8125 37.050781 -8.003906 38.15625 -7.140625 C 38.8125 -6.597656 39.535156 -6.460938 40.328125 -6.734375 C 43.054688 -7.535156 45.828125 -8.101562 48.640625 -8.4375 C 48.734375 -8.4375 48.828125 -8.445312 48.921875 -8.46875 C 49.554688 -8.582031 50.179688 -8.582031 50.796875 -8.46875 C 50.953125 -8.425781 51.082031 -8.351562 51.1875 -8.25 C 51.300781 -8.15625 51.359375 -8.003906 51.359375 -7.796875 C 51.359375 -7.585938 51.296875 -7.429688 51.171875 -7.328125 C 51.054688 -7.222656 50.921875 -7.171875 50.765625 -7.171875 C 49.785156 -7.148438 48.828125 -7.046875 47.890625 -6.859375 C 46.960938 -6.679688 46.046875 -6.484375 45.140625 -6.265625 C 44.398438 -6.078125 43.679688 -5.914062 42.984375 -5.78125 C 42.890625 -5.757812 42.800781 -5.738281 42.71875 -5.71875 C 42.375 -5.664062 42.035156 -5.582031 41.703125 -5.46875 C 41.378906 -5.351562 41.09375 -5.179688 40.84375 -4.953125 C 41.019531 -4.503906 41.269531 -4.132812 41.59375 -3.84375 C 41.726562 -3.675781 41.863281 -3.503906 42 -3.328125 C 42.5625 -2.578125 43.050781 -1.796875 43.46875 -0.984375 C 43.894531 -0.179688 44.210938 0.671875 44.421875 1.578125 C 44.921875 3.921875 44.15625 5.726562 42.125 7 C 41.445312 7.40625 40.738281 7.75 40 8.03125 C 37.351562 8.976562 34.632812 9.375 31.84375 9.21875 C 30.75 9.144531 29.726562 8.875 28.78125 8.40625 C 27.476562 7.71875 26.617188 6.757812 26.203125 5.53125 C 25.796875 4.300781 25.914062 3.03125 26.5625 1.71875 C 26.988281 0.875 27.554688 0.144531 28.265625 -0.46875 C 29.148438 -1.257812 30.097656 -1.96875 31.109375 -2.59375 C 32.117188 -3.21875 33.160156 -3.796875 34.234375 -4.328125 C 34.679688 -4.554688 35.125 -4.78125 35.5625 -5 C 35.789062 -5.113281 36.019531 -5.226562 36.25 -5.34375 C 36.269531 -5.59375 36.226562 -5.785156 36.125 -5.921875 C 36.019531 -6.054688 35.898438 -6.171875 35.765625 -6.265625 C 35.710938 -6.285156 35.664062 -6.320312 35.625 -6.375 C 33.78125 -7.769531 31.859375 -9.050781 29.859375 -10.21875 C 27.429688 -11.644531 24.988281 -13.0625 22.53125 -14.46875 C 21.507812 -15.0625 20.488281 -15.664062 19.46875 -16.28125 C 15.914062 -18.332031 12.503906 -20.582031 9.234375 -23.03125 C 7.210938 -24.53125 5.382812 -26.234375 3.75 -28.140625 C 2.957031 -29.117188 2.285156 -30.175781 1.734375 -31.3125 C 0.578125 -33.738281 0.460938 -36.238281 1.390625 -38.8125 C 1.867188 -40.132812 2.503906 -41.351562 3.296875 -42.46875 C 4.097656 -43.59375 4.976562 -44.660156 5.9375 -45.671875 C 8.070312 -47.878906 10.429688 -49.765625 13.015625 -51.328125 C 17.316406 -53.960938 21.851562 -56.078125 26.625 -57.671875 C 32.582031 -59.671875 38.671875 -61.09375 44.890625 -61.9375 C 47.046875 -62.226562 49.210938 -62.398438 51.390625 -62.453125 C 53.566406 -62.503906 55.734375 -62.363281 57.890625 -62.03125 C 59.179688 -61.851562 60.429688 -61.582031 61.640625 -61.21875 C 62.859375 -60.851562 64.023438 -60.328125 65.140625 -59.640625 C 65.828125 -59.203125 66.460938 -58.726562 67.046875 -58.21875 Z M 38.578125 -3.59375 C 38.222656 -3.96875 37.804688 -4.023438 37.328125 -3.765625 C 36.117188 -3.222656 34.953125 -2.613281 33.828125 -1.9375 C 32.710938 -1.269531 31.644531 -0.515625 30.625 0.328125 C 30.070312 0.796875 29.613281 1.347656 29.25 1.984375 C 28.570312 3.285156 28.5 4.488281 29.03125 5.59375 C 29.5625 6.707031 30.546875 7.394531 31.984375 7.65625 C 32.328125 7.695312 32.628906 7.726562 32.890625 7.75 C 32.984375 7.75 33.0625 7.75 33.125 7.75 C 35.3125 7.6875 37.300781 7.242188 39.09375 6.421875 C 41.320312 5.460938 42.132812 3.8125 41.53125 1.46875 C 41.269531 0.5 40.882812 -0.398438 40.375 -1.234375 C 39.863281 -2.066406 39.265625 -2.851562 38.578125 -3.59375 Z M 38.578125 -3.59375"/></g><g id="b"><path d="M 15.1875 -7.515625 C 16.0625 -8.492188 16.519531 -8.867188 16.5625 -8.640625 C 16.613281 -8.421875 16.425781 -7.894531 16 -7.0625 C 15.582031 -6.226562 14.925781 -5.515625 14.03125 -4.921875 C 13.382812 -4.523438 12.828125 -4.253906 12.359375 -4.109375 C 11.890625 -3.972656 11.460938 -3.894531 11.078125 -3.875 C 10.328125 -3.832031 9.75 -4.046875 9.34375 -4.515625 C 8.945312 -4.992188 8.671875 -5.609375 8.515625 -6.359375 C 8.367188 -7.109375 8.257812 -7.878906 8.1875 -8.671875 C 8.113281 -9.179688 8.046875 -9.640625 7.984375 -10.046875 C 7.890625 -10.679688 7.703125 -11.03125 7.421875 -11.09375 C 7.148438 -11.164062 6.734375 -10.757812 6.171875 -9.875 C 5.578125 -8.914062 5.054688 -7.863281 4.609375 -6.71875 C 4.171875 -5.570312 3.78125 -4.453125 3.4375 -3.359375 C 3.414062 -3.316406 3.394531 -3.257812 3.375 -3.1875 C 3.300781 -3.03125 3.242188 -2.875 3.203125 -2.71875 C 3.066406 -2.257812 2.910156 -1.8125 2.734375 -1.375 C 2.578125 -1.019531 2.304688 -0.785156 1.921875 -0.671875 C 1.546875 -0.554688 1.15625 -0.582031 0.75 -0.75 C 0.476562 -0.863281 0.296875 -1.050781 0.203125 -1.3125 C 0.0664062 -1.726562 0.0195312 -2.148438 0.0625 -2.578125 C 0.0625 -2.628906 0.0625 -2.664062 0.0625 -2.6875 C 0.15625 -4.476562 0.171875 -7.46875 0.109375 -11.65625 C 0.0546875 -14.988281 0.03125 -18.578125 0.03125 -22.421875 C 0.03125 -26.265625 0.128906 -29.890625 0.328125 -33.296875 C 0.523438 -36.703125 0.859375 -39.429688 1.328125 -41.484375 C 1.535156 -42.222656 1.875 -42.890625 2.34375 -43.484375 C 2.820312 -44.078125 3.347656 -44.398438 3.921875 -44.453125 C 4.503906 -44.515625 5.050781 -44.125 5.5625 -43.28125 C 5.90625 -42.550781 6.117188 -41.78125 6.203125 -40.96875 C 6.421875 -38.550781 6.210938 -34.835938 5.578125 -29.828125 C 4.953125 -24.816406 4.289062 -20.429688 3.59375 -16.671875 C 2.90625 -12.910156 2.5625 -9.769531 2.5625 -7.25 C 2.78125 -7.632812 3.003906 -8.039062 3.234375 -8.46875 C 3.554688 -9.113281 3.914062 -9.753906 4.3125 -10.390625 C 4.707031 -11.023438 5.175781 -11.5625 5.71875 -12 C 6.257812 -12.445312 6.921875 -12.726562 7.703125 -12.84375 C 8.222656 -12.925781 8.753906 -12.890625 9.296875 -12.734375 C 9.847656 -12.578125 10.210938 -12.203125 10.390625 -11.609375 C 10.617188 -10.566406 10.695312 -9.457031 10.625 -8.28125 C 10.625 -7.03125 10.84375 -6.238281 11.28125 -5.90625 C 11.71875 -5.570312 12.257812 -5.515625 12.90625 -5.734375 C 13.550781 -5.953125 14.3125 -6.546875 15.1875 -7.515625 Z M 3.609375 -39.5625 C 3.492188 -38.269531 3.363281 -36.113281 3.21875 -33.09375 C 3.070312 -30.070312 2.945312 -27.039062 2.84375 -24 C 2.75 -20.96875 2.703125 -18.441406 2.703125 -16.421875 C 2.941406 -18.242188 3.238281 -20.613281 3.59375 -23.53125 C 3.945312 -26.445312 4.257812 -29.445312 4.53125 -32.53125 C 4.800781 -35.625 4.9375 -37.945312 4.9375 -39.5 C 4.914062 -40.3125 4.859375 -40.914062 4.765625 -41.3125 C 4.679688 -41.71875 4.53125 -41.863281 4.3125 -41.75 C 4.09375 -41.632812 3.925781 -41.34375 3.8125 -40.875 C 3.695312 -40.40625 3.628906 -39.96875 3.609375 -39.5625 Z M 3.609375 -39.5625"/></g><g id="c"><path d="M 8.03125 -6.28125 C 7.71875 -5.625 7.175781 -4.890625 6.40625 -4.078125 C 5.632812 -3.273438 4.757812 -2.765625 3.78125 -2.546875 C 2.8125 -2.335938 1.878906 -2.675781 0.984375 -3.5625 C 0.648438 -3.957031 0.398438 -4.410156 0.234375 -4.921875 C 0.078125 -5.429688 0.0195312 -5.9375 0.0625 -6.4375 C 0.0625 -6.5625 0.0625 -6.726562 0.0625 -6.9375 C 0.0625 -7.46875 0.0820312 -8.078125 0.125 -8.765625 C 0.175781 -9.460938 0.28125 -10.085938 0.4375 -10.640625 C 0.601562 -11.203125 0.851562 -11.539062 1.1875 -11.65625 C 2.175781 -11.90625 2.710938 -11.5625 2.796875 -10.625 C 2.796875 -10.332031 2.785156 -10.035156 2.765625 -9.734375 C 2.742188 -9.578125 2.734375 -9.429688 2.734375 -9.296875 C 2.710938 -8.859375 2.691406 -8.425781 2.671875 -8 C 2.671875 -7.65625 2.65625 -7.3125 2.625 -6.96875 C 2.601562 -5.46875 2.9375 -4.578125 3.625 -4.296875 C 4.320312 -4.015625 5.113281 -4.316406 6 -5.203125 C 6.882812 -6.085938 7.460938 -6.828125 7.734375 -7.421875 C 8.015625 -8.015625 8.210938 -8.140625 8.328125 -7.796875 C 8.453125 -7.453125 8.351562 -6.945312 8.03125 -6.28125 Z M 2.59375 -14.84375 C 2.457031 -14.726562 2.289062 -14.65625 2.09375 -14.625 C 1.90625 -14.59375 1.738281 -14.609375 1.59375 -14.671875 C 1.476562 -14.765625 1.40625 -14.882812 1.375 -15.03125 C 1.34375 -15.1875 1.328125 -15.367188 1.328125 -15.578125 C 1.328125 -15.617188 1.335938 -15.660156 1.359375 -15.703125 C 1.378906 -15.878906 1.425781 -16.0625 1.5 -16.25 C 1.707031 -16.75 2.140625 -16.976562 2.796875 -16.9375 C 3.015625 -16.90625 3.1875 -16.8125 3.3125 -16.65625 C 3.445312 -16.5 3.476562 -16.316406 3.40625 -16.109375 C 3.25 -15.609375 2.976562 -15.1875 2.59375 -14.84375 Z M 2.59375 -14.84375"/></g><g id="d"><path d="M 9.40625 -8.453125 C 9.40625 -8.222656 8.90625 -7.804688 7.90625 -7.203125 C 6.90625 -6.597656 6.164062 -6.140625 5.6875 -5.828125 C 5.207031 -5.523438 4.96875 -5.335938 4.96875 -5.265625 C 5.0625 -5.054688 5.160156 -4.707031 5.265625 -4.21875 C 5.367188 -3.738281 5.40625 -3.210938 5.375 -2.640625 C 5.351562 -2.078125 5.171875 -1.570312 4.828125 -1.125 C 4.492188 -0.6875 3.925781 -0.421875 3.125 -0.328125 C 2.332031 -0.265625 1.625 -0.382812 1 -0.6875 C 0.375 -0.988281 -0.015625 -1.425781 -0.171875 -2 C -0.335938 -2.582031 -0.144531 -3.265625 0.40625 -4.046875 C 0.757812 -4.472656 1.191406 -4.847656 1.703125 -5.171875 C 1.878906 -5.285156 2.0625 -5.410156 2.25 -5.546875 C 1.632812 -6.203125 1.050781 -6.875 0.5 -7.5625 C -0.0390625 -8.257812 -0.390625 -8.882812 -0.546875 -9.4375 C -0.710938 -10.0625 -0.601562 -10.65625 -0.21875 -11.21875 C 0.15625 -11.78125 0.804688 -12.101562 1.734375 -12.1875 C 2.191406 -12.226562 2.617188 -12.207031 3.015625 -12.125 C 3.410156 -12.039062 3.78125 -11.847656 4.125 -11.546875 C 4.195312 -11.472656 4.25 -11.390625 4.28125 -11.296875 C 4.3125 -11.210938 4.296875 -11.101562 4.234375 -10.96875 C 4.117188 -10.757812 3.945312 -10.65625 3.71875 -10.65625 C 3.550781 -10.65625 3.390625 -10.675781 3.234375 -10.71875 C 3.066406 -10.789062 2.921875 -10.859375 2.796875 -10.921875 C 2.703125 -10.972656 2.613281 -11.019531 2.53125 -11.0625 C 2.226562 -11.175781 1.992188 -11.160156 1.828125 -11.015625 C 1.671875 -10.867188 1.59375 -10.644531 1.59375 -10.34375 C 1.613281 -9.820312 1.828125 -9.257812 2.234375 -8.65625 C 2.648438 -8.0625 3.0625 -7.507812 3.46875 -7 C 3.632812 -6.820312 3.773438 -6.65625 3.890625 -6.5 C 4.003906 -6.382812 4.300781 -6.398438 4.78125 -6.546875 C 5.269531 -6.691406 6.160156 -7.101562 7.453125 -7.78125 C 8.753906 -8.46875 9.40625 -8.691406 9.40625 -8.453125 Z M 2.484375 -1.484375 C 2.773438 -1.503906 2.96875 -1.671875 3.0625 -1.984375 C 3.15625 -2.296875 3.1875 -2.632812 3.15625 -3 C 3.132812 -3.375 3.113281 -3.65625 3.09375 -3.84375 C 3.050781 -3.957031 2.976562 -4.03125 2.875 -4.0625 C 2.78125 -4.09375 2.6875 -4.085938 2.59375 -4.046875 C 2.25 -3.773438 1.992188 -3.429688 1.828125 -3.015625 C 1.671875 -2.609375 1.6875 -2.25 1.875 -1.9375 C 1.9375 -1.820312 2.019531 -1.722656 2.125 -1.640625 C 2.226562 -1.554688 2.347656 -1.503906 2.484375 -1.484375 Z M 2.484375 -1.484375"/></g><g id="e"><path d="M 9.890625 -7.421875 C 10.085938 -7.828125 10.21875 -8.015625 10.28125 -7.984375 C 10.351562 -7.953125 10.367188 -7.785156 10.328125 -7.484375 C 10.296875 -7.191406 10.238281 -6.863281 10.15625 -6.5 C 10.019531 -5.925781 9.785156 -5.265625 9.453125 -4.515625 C 9.117188 -3.765625 8.753906 -3.085938 8.359375 -2.484375 C 7.753906 -1.628906 7.007812 -0.988281 6.125 -0.5625 C 5.238281 -0.132812 4.4375 -0.03125 3.71875 -0.25 C 3.007812 -0.46875 2.597656 -1.144531 2.484375 -2.28125 C 2.460938 -3.226562 2.546875 -4.269531 2.734375 -5.40625 C 2.785156 -5.882812 2.847656 -6.347656 2.921875 -6.796875 C 2.921875 -6.960938 2.878906 -7.085938 2.796875 -7.171875 C 2.722656 -7.265625 2.617188 -7.300781 2.484375 -7.28125 C 2.390625 -7.28125 2.285156 -7.28125 2.171875 -7.28125 C 1.597656 -7.1875 1.019531 -7.195312 0.4375 -7.3125 C -0.269531 -7.519531 -0.675781 -7.867188 -0.78125 -8.359375 C -0.894531 -8.847656 -0.890625 -9.488281 -0.765625 -10.28125 C -0.691406 -10.851562 -0.476562 -11.28125 -0.125 -11.5625 C 0.226562 -11.851562 0.640625 -11.972656 1.109375 -11.921875 C 1.773438 -11.859375 2.097656 -11.601562 2.078125 -11.15625 C 2.054688 -10.707031 1.929688 -10.234375 1.703125 -9.734375 C 1.492188 -9.304688 1.382812 -8.953125 1.375 -8.671875 C 1.363281 -8.390625 1.609375 -8.289062 2.109375 -8.375 C 2.222656 -8.394531 2.347656 -8.425781 2.484375 -8.46875 C 2.671875 -8.539062 2.878906 -8.601562 3.109375 -8.65625 C 3.347656 -8.71875 3.660156 -8.734375 4.046875 -8.703125 C 4.492188 -8.679688 4.789062 -8.472656 4.9375 -8.078125 C 5.09375 -7.679688 5.160156 -7.179688 5.140625 -6.578125 C 5.117188 -5.984375 5.0625 -5.375 4.96875 -4.75 C 4.851562 -3.976562 4.796875 -3.316406 4.796875 -2.765625 C 4.796875 -2.210938 4.957031 -1.890625 5.28125 -1.796875 C 5.707031 -1.679688 6.335938 -2.066406 7.171875 -2.953125 C 8.015625 -3.835938 8.921875 -5.328125 9.890625 -7.421875 Z M 9.890625 -7.421875"/></g></defs><g fill="#FF3F71" fill-opacity=".4"><use x="4.514" y="64.531" xmlns:xlink="http://www.w3.org/1999/xlink" xlink:href="#a" xlink:type="simple" xlink:actuate="onLoad" xlink:show="embed"/></g><g fill="#FF3F71" fill-opacity=".4"><use x="54.343" y="64.531" xmlns:xlink="http://www.w3.org/1999/xlink" xlink:href="#b" xlink:type="simple" xlink:actuate="onLoad" xlink:show="embed"/></g><g fill="#FF3F71" fill-opacity=".4"><use x="70.069" y="64.531" xmlns:xlink="http://www.w3.org/1999/xlink" xlink:href="#c" xlink:type="simple" xlink:actuate="onLoad" xlink:show="embed"/></g><g fill="#FF3F71" fill-opacity=".4"><use x="77.676" y="64.531" xmlns:xlink="http://www.w3.org/1999/xlink" xlink:href="#d" xlink:type="simple" xlink:actuate="onLoad" xlink:show="embed"/></g><g fill="#FF3F71" fill-opacity=".4"><use x="86.027" y="64.531" xmlns:xlink="http://www.w3.org/1999/xlink" xlink:href="#b" xlink:type="simple" xlink:actuate="onLoad" xlink:show="embed"/></g><g fill="#FF3F71" fill-opacity=".4"><use x="101.754" y="64.531" xmlns:xlink="http://www.w3.org/1999/xlink" xlink:href="#c" xlink:type="simple" xlink:actuate="onLoad" xlink:show="embed"/></g><g fill="#FF3F71" fill-opacity=".4"><use x="109.361" y="64.531" xmlns:xlink="http://www.w3.org/1999/xlink" xlink:href="#e" xlink:type="simple" xlink:actuate="onLoad" xlink:show="embed"/></g><g fill="#FF3F71"><use x="3.785" y="63.801" xmlns:xlink="http://www.w3.org/1999/xlink" xlink:href="#a" xlink:type="simple" xlink:actuate="onLoad" xlink:show="embed"/></g><g fill="#FF3F71"><use x="53.613" y="63.801" xmlns:xlink="http://www.w3.org/1999/xlink" xlink:href="#b" xlink:type="simple" xlink:actuate="onLoad" xlink:show="embed"/></g><g fill="#FF3F71"><use x="69.339" y="63.801" xmlns:xlink="http://www.w3.org/1999/xlink" xlink:href="#c" xlink:type="simple" xlink:actuate="onLoad" xlink:show="embed"/></g><g fill="#FF3F71"><use x="76.947" y="63.801" xmlns:xlink="http://www.w3.org/1999/xlink" xlink:href="#d" xlink:type="simple" xlink:actuate="onLoad" xlink:show="embed"/></g><g fill="#FF3F71"><use x="85.298" y="63.801" xmlns:xlink="http://www.w3.org/1999/xlink" xlink:href="#b" xlink:type="simple" xlink:actuate="onLoad" xlink:show="embed"/></g><g fill="#FF3F71"><use x="101.024" y="63.801" xmlns:xlink="http://www.w3.org/1999/xlink" xlink:href="#c" xlink:type="simple" xlink:actuate="onLoad" xlink:show="embed"/></g><g fill="#FF3F71"><use x="108.632" y="63.801" xmlns:xlink="http://www.w3.org/1999/xlink" xlink:href="#e" xlink:type="simple" xlink:actuate="onLoad" xlink:show="embed"/></g></svg>