<svg xmlns="http://www.w3.org/2000/svg" xmlns:xlink="http://www.w3.org/1999/xlink" width="224.88" viewBox="0 0 224.88 75" height="75" version="1.0"><defs><g id="q"><path d="M 66.6875 -57.90625 C 69.695312 -55.132812 70.585938 -51.800781 69.359375 -47.90625 C 69.140625 -47.21875 68.859375 -46.554688 68.515625 -45.921875 C 67.890625 -44.796875 67.171875 -43.734375 66.359375 -42.734375 C 65.554688 -41.742188 64.703125 -40.800781 63.796875 -39.90625 C 63.191406 -39.257812 62.484375 -39.039062 61.671875 -39.25 C 61.453125 -39.269531 61.304688 -39.382812 61.234375 -39.59375 C 61.191406 -39.800781 61.25 -39.96875 61.40625 -40.09375 C 62.875 -41.519531 64.160156 -43.09375 65.265625 -44.8125 C 66.054688 -45.96875 66.632812 -47.210938 67 -48.546875 C 67.875 -52.160156 66.878906 -55.140625 64.015625 -57.484375 C 62.660156 -58.554688 61.144531 -59.304688 59.46875 -59.734375 C 57.882812 -60.148438 56.296875 -60.421875 54.703125 -60.546875 C 53.117188 -60.679688 51.519531 -60.691406 49.90625 -60.578125 C 47.445312 -60.429688 45.003906 -60.144531 42.578125 -59.71875 C 40.160156 -59.300781 37.757812 -58.796875 35.375 -58.203125 C 32.25 -57.429688 29.179688 -56.484375 26.171875 -55.359375 C 23.171875 -54.242188 20.257812 -52.914062 17.4375 -51.375 C 14.695312 -49.90625 12.160156 -48.144531 9.828125 -46.09375 C 7.753906 -44.269531 6.050781 -42.132812 4.71875 -39.6875 C 3 -36.4375 3.140625 -33.269531 5.140625 -30.1875 C 6.421875 -28.34375 7.9375 -26.707031 9.6875 -25.28125 C 12.425781 -23.019531 15.3125 -20.984375 18.34375 -19.171875 C 20.894531 -17.640625 23.445312 -16.128906 26 -14.640625 C 27.695312 -13.660156 29.378906 -12.675781 31.046875 -11.6875 C 32.253906 -10.988281 33.429688 -10.265625 34.578125 -9.515625 C 35.734375 -8.773438 36.851562 -7.972656 37.9375 -7.109375 C 38.59375 -6.554688 39.316406 -6.421875 40.109375 -6.703125 C 42.828125 -7.492188 45.582031 -8.0625 48.375 -8.40625 C 48.46875 -8.40625 48.5625 -8.414062 48.65625 -8.4375 C 49.289062 -8.539062 49.910156 -8.539062 50.515625 -8.4375 C 50.671875 -8.394531 50.804688 -8.320312 50.921875 -8.21875 C 51.035156 -8.113281 51.09375 -7.957031 51.09375 -7.75 C 51.09375 -7.539062 51.03125 -7.382812 50.90625 -7.28125 C 50.78125 -7.1875 50.640625 -7.140625 50.484375 -7.140625 C 49.515625 -7.117188 48.566406 -7.015625 47.640625 -6.828125 C 46.710938 -6.648438 45.796875 -6.445312 44.890625 -6.21875 C 44.160156 -6.039062 43.445312 -5.882812 42.75 -5.75 C 42.65625 -5.726562 42.566406 -5.707031 42.484375 -5.6875 C 42.148438 -5.632812 41.816406 -5.550781 41.484375 -5.4375 C 41.160156 -5.320312 40.875 -5.15625 40.625 -4.9375 C 40.800781 -4.476562 41.046875 -4.109375 41.359375 -3.828125 C 41.492188 -3.660156 41.628906 -3.488281 41.765625 -3.3125 C 42.328125 -2.5625 42.816406 -1.785156 43.234375 -0.984375 C 43.660156 -0.179688 43.976562 0.671875 44.1875 1.578125 C 44.675781 3.910156 43.914062 5.707031 41.90625 6.96875 C 41.226562 7.363281 40.519531 7.703125 39.78125 7.984375 C 37.144531 8.929688 34.441406 9.328125 31.671875 9.171875 C 30.578125 9.097656 29.5625 8.828125 28.625 8.359375 C 27.320312 7.671875 26.46875 6.71875 26.0625 5.5 C 25.65625 4.28125 25.773438 3.015625 26.421875 1.703125 C 26.847656 0.867188 27.410156 0.144531 28.109375 -0.46875 C 28.992188 -1.257812 29.9375 -1.960938 30.9375 -2.578125 C 31.9375 -3.203125 32.972656 -3.773438 34.046875 -4.296875 C 34.492188 -4.523438 34.9375 -4.753906 35.375 -4.984375 C 35.59375 -5.085938 35.816406 -5.195312 36.046875 -5.3125 C 36.066406 -5.5625 36.023438 -5.753906 35.921875 -5.890625 C 35.816406 -6.023438 35.695312 -6.132812 35.5625 -6.21875 C 35.519531 -6.238281 35.476562 -6.273438 35.4375 -6.328125 C 33.601562 -7.734375 31.691406 -9.007812 29.703125 -10.15625 C 27.285156 -11.582031 24.851562 -12.992188 22.40625 -14.390625 C 21.382812 -14.972656 20.367188 -15.578125 19.359375 -16.203125 C 15.835938 -18.234375 12.445312 -20.46875 9.1875 -22.90625 C 7.175781 -24.40625 5.359375 -26.097656 3.734375 -27.984375 C 2.941406 -28.960938 2.269531 -30.015625 1.71875 -31.140625 C 0.570312 -33.554688 0.460938 -36.046875 1.390625 -38.609375 C 1.859375 -39.921875 2.488281 -41.132812 3.28125 -42.25 C 4.070312 -43.363281 4.945312 -44.421875 5.90625 -45.421875 C 8.03125 -47.617188 10.378906 -49.492188 12.953125 -51.046875 C 17.222656 -53.671875 21.734375 -55.773438 26.484375 -57.359375 C 32.410156 -59.335938 38.460938 -60.75 44.640625 -61.59375 C 46.796875 -61.882812 48.953125 -62.054688 51.109375 -62.109375 C 53.273438 -62.171875 55.429688 -62.03125 57.578125 -61.6875 C 58.859375 -61.519531 60.101562 -61.25 61.3125 -60.875 C 62.519531 -60.507812 63.679688 -59.988281 64.796875 -59.3125 C 65.472656 -58.882812 66.101562 -58.414062 66.6875 -57.90625 Z M 38.375 -3.578125 C 38.007812 -3.941406 37.59375 -4 37.125 -3.75 C 35.925781 -3.207031 34.769531 -2.601562 33.65625 -1.9375 C 32.539062 -1.269531 31.472656 -0.515625 30.453125 0.328125 C 29.910156 0.796875 29.457031 1.34375 29.09375 1.96875 C 28.414062 3.269531 28.34375 4.472656 28.875 5.578125 C 29.40625 6.679688 30.382812 7.359375 31.8125 7.609375 C 32.144531 7.648438 32.445312 7.679688 32.71875 7.703125 C 32.8125 7.703125 32.890625 7.703125 32.953125 7.703125 C 35.128906 7.640625 37.109375 7.195312 38.890625 6.375 C 41.109375 5.4375 41.910156 3.800781 41.296875 1.46875 C 41.046875 0.5 40.664062 -0.394531 40.15625 -1.21875 C 39.644531 -2.050781 39.050781 -2.835938 38.375 -3.578125 Z M 38.375 -3.578125"/></g><g id="r"><path d="M 15.09375 -7.484375 C 15.96875 -8.453125 16.425781 -8.820312 16.46875 -8.59375 C 16.519531 -8.375 16.332031 -7.847656 15.90625 -7.015625 C 15.488281 -6.191406 14.84375 -5.488281 13.96875 -4.90625 C 13.3125 -4.5 12.75 -4.226562 12.28125 -4.09375 C 11.820312 -3.957031 11.398438 -3.878906 11.015625 -3.859375 C 10.265625 -3.816406 9.691406 -4.03125 9.296875 -4.5 C 8.898438 -4.96875 8.625 -5.570312 8.46875 -6.3125 C 8.320312 -7.0625 8.210938 -7.832031 8.140625 -8.625 C 8.066406 -9.132812 8 -9.585938 7.9375 -9.984375 C 7.84375 -10.617188 7.660156 -10.96875 7.390625 -11.03125 C 7.117188 -11.101562 6.703125 -10.695312 6.140625 -9.8125 C 5.546875 -8.875 5.03125 -7.832031 4.59375 -6.6875 C 4.15625 -5.550781 3.765625 -4.4375 3.421875 -3.34375 C 3.398438 -3.300781 3.378906 -3.242188 3.359375 -3.171875 C 3.285156 -3.015625 3.226562 -2.859375 3.1875 -2.703125 C 3.050781 -2.242188 2.894531 -1.800781 2.71875 -1.375 C 2.5625 -1.007812 2.296875 -0.769531 1.921875 -0.65625 C 1.546875 -0.550781 1.148438 -0.578125 0.734375 -0.734375 C 0.472656 -0.847656 0.296875 -1.039062 0.203125 -1.3125 C 0.0664062 -1.71875 0.0195312 -2.132812 0.0625 -2.5625 C 0.0625 -2.613281 0.0625 -2.648438 0.0625 -2.671875 C 0.15625 -4.453125 0.171875 -7.425781 0.109375 -11.59375 C 0.0546875 -14.90625 0.03125 -18.472656 0.03125 -22.296875 C 0.03125 -26.117188 0.125 -29.722656 0.3125 -33.109375 C 0.507812 -36.503906 0.847656 -39.21875 1.328125 -41.25 C 1.535156 -41.988281 1.875 -42.65625 2.34375 -43.25 C 2.8125 -43.84375 3.332031 -44.164062 3.90625 -44.21875 C 4.488281 -44.28125 5.03125 -43.890625 5.53125 -43.046875 C 5.875 -42.328125 6.085938 -41.5625 6.171875 -40.75 C 6.390625 -38.34375 6.179688 -34.644531 5.546875 -29.65625 C 4.921875 -24.675781 4.265625 -20.316406 3.578125 -16.578125 C 2.890625 -12.835938 2.546875 -9.71875 2.546875 -7.21875 C 2.765625 -7.59375 2.988281 -8 3.21875 -8.4375 C 3.539062 -9.070312 3.898438 -9.703125 4.296875 -10.328125 C 4.691406 -10.960938 5.15625 -11.5 5.6875 -11.9375 C 6.226562 -12.382812 6.882812 -12.664062 7.65625 -12.78125 C 8.1875 -12.863281 8.71875 -12.828125 9.25 -12.671875 C 9.789062 -12.515625 10.15625 -12.140625 10.34375 -11.546875 C 10.570312 -10.503906 10.648438 -9.398438 10.578125 -8.234375 C 10.578125 -6.984375 10.789062 -6.191406 11.21875 -5.859375 C 11.644531 -5.535156 12.179688 -5.484375 12.828125 -5.703125 C 13.472656 -5.921875 14.226562 -6.515625 15.09375 -7.484375 Z M 3.59375 -39.34375 C 3.476562 -38.0625 3.347656 -35.914062 3.203125 -32.90625 C 3.054688 -29.90625 2.929688 -26.894531 2.828125 -23.875 C 2.734375 -20.851562 2.6875 -18.34375 2.6875 -16.34375 C 2.925781 -18.144531 3.21875 -20.492188 3.5625 -23.390625 C 3.914062 -26.296875 4.226562 -29.285156 4.5 -32.359375 C 4.78125 -35.429688 4.921875 -37.738281 4.921875 -39.28125 C 4.898438 -40.09375 4.84375 -40.695312 4.75 -41.09375 C 4.65625 -41.488281 4.5 -41.628906 4.28125 -41.515625 C 4.0625 -41.398438 3.894531 -41.113281 3.78125 -40.65625 C 3.675781 -40.195312 3.613281 -39.757812 3.59375 -39.34375 Z M 3.59375 -39.34375"/></g><g id="s"><path d="M 7.984375 -6.25 C 7.671875 -5.59375 7.128906 -4.863281 6.359375 -4.0625 C 5.597656 -3.257812 4.734375 -2.75 3.765625 -2.53125 C 2.796875 -2.320312 1.867188 -2.660156 0.984375 -3.546875 C 0.648438 -3.929688 0.398438 -4.378906 0.234375 -4.890625 C 0.078125 -5.398438 0.0195312 -5.898438 0.0625 -6.390625 C 0.0625 -6.523438 0.0625 -6.695312 0.0625 -6.90625 C 0.0625 -7.425781 0.0820312 -8.03125 0.125 -8.71875 C 0.175781 -9.40625 0.28125 -10.023438 0.4375 -10.578125 C 0.59375 -11.140625 0.84375 -11.476562 1.1875 -11.59375 C 2.164062 -11.832031 2.695312 -11.492188 2.78125 -10.578125 C 2.78125 -10.273438 2.769531 -9.972656 2.75 -9.671875 C 2.726562 -9.523438 2.71875 -9.382812 2.71875 -9.25 C 2.695312 -8.8125 2.675781 -8.378906 2.65625 -7.953125 C 2.65625 -7.609375 2.640625 -7.269531 2.609375 -6.9375 C 2.585938 -5.445312 2.921875 -4.5625 3.609375 -4.28125 C 4.296875 -4 5.082031 -4.296875 5.96875 -5.171875 C 6.851562 -6.054688 7.429688 -6.789062 7.703125 -7.375 C 7.972656 -7.96875 8.164062 -8.09375 8.28125 -7.75 C 8.40625 -7.414062 8.304688 -6.914062 7.984375 -6.25 Z M 2.578125 -14.765625 C 2.441406 -14.648438 2.273438 -14.578125 2.078125 -14.546875 C 1.890625 -14.515625 1.726562 -14.53125 1.59375 -14.59375 C 1.476562 -14.6875 1.40625 -14.804688 1.375 -14.953125 C 1.34375 -15.109375 1.328125 -15.285156 1.328125 -15.484375 C 1.328125 -15.523438 1.335938 -15.566406 1.359375 -15.609375 C 1.378906 -15.796875 1.425781 -15.984375 1.5 -16.171875 C 1.695312 -16.660156 2.125 -16.882812 2.78125 -16.84375 C 3 -16.8125 3.171875 -16.71875 3.296875 -16.5625 C 3.429688 -16.414062 3.460938 -16.238281 3.390625 -16.03125 C 3.234375 -15.519531 2.960938 -15.097656 2.578125 -14.765625 Z M 2.578125 -14.765625"/></g><g id="t"><path d="M 9.359375 -8.40625 C 9.359375 -8.175781 8.859375 -7.757812 7.859375 -7.15625 C 6.859375 -6.550781 6.125 -6.097656 5.65625 -5.796875 C 5.1875 -5.492188 4.953125 -5.304688 4.953125 -5.234375 C 5.035156 -5.035156 5.128906 -4.691406 5.234375 -4.203125 C 5.335938 -3.722656 5.375 -3.195312 5.34375 -2.625 C 5.320312 -2.0625 5.140625 -1.5625 4.796875 -1.125 C 4.460938 -0.6875 3.898438 -0.421875 3.109375 -0.328125 C 2.316406 -0.265625 1.609375 -0.382812 0.984375 -0.6875 C 0.367188 -0.988281 -0.015625 -1.425781 -0.171875 -2 C -0.335938 -2.570312 -0.144531 -3.242188 0.40625 -4.015625 C 0.757812 -4.453125 1.1875 -4.828125 1.6875 -5.140625 C 1.863281 -5.253906 2.046875 -5.378906 2.234375 -5.515625 C 1.628906 -6.171875 1.050781 -6.84375 0.5 -7.53125 C -0.0390625 -8.21875 -0.390625 -8.835938 -0.546875 -9.390625 C -0.703125 -10.015625 -0.59375 -10.601562 -0.21875 -11.15625 C 0.15625 -11.707031 0.800781 -12.03125 1.71875 -12.125 C 2.175781 -12.164062 2.601562 -12.140625 3 -12.046875 C 3.394531 -11.960938 3.757812 -11.773438 4.09375 -11.484375 C 4.164062 -11.410156 4.21875 -11.328125 4.25 -11.234375 C 4.28125 -11.148438 4.265625 -11.039062 4.203125 -10.90625 C 4.085938 -10.707031 3.921875 -10.609375 3.703125 -10.609375 C 3.535156 -10.609375 3.375 -10.628906 3.21875 -10.671875 C 3.050781 -10.734375 2.90625 -10.796875 2.78125 -10.859375 C 2.6875 -10.910156 2.597656 -10.957031 2.515625 -11 C 2.210938 -11.113281 1.984375 -11.097656 1.828125 -10.953125 C 1.671875 -10.804688 1.59375 -10.585938 1.59375 -10.296875 C 1.613281 -9.773438 1.828125 -9.210938 2.234375 -8.609375 C 2.640625 -8.015625 3.046875 -7.46875 3.453125 -6.96875 C 3.617188 -6.789062 3.757812 -6.617188 3.875 -6.453125 C 3.976562 -6.335938 4.269531 -6.351562 4.75 -6.5 C 5.238281 -6.65625 6.128906 -7.070312 7.421875 -7.75 C 8.710938 -8.425781 9.359375 -8.644531 9.359375 -8.40625 Z M 2.46875 -1.484375 C 2.757812 -1.503906 2.953125 -1.664062 3.046875 -1.96875 C 3.140625 -2.28125 3.171875 -2.617188 3.140625 -2.984375 C 3.117188 -3.359375 3.097656 -3.640625 3.078125 -3.828125 C 3.035156 -3.929688 2.960938 -4 2.859375 -4.03125 C 2.765625 -4.0625 2.671875 -4.054688 2.578125 -4.015625 C 2.234375 -3.753906 1.984375 -3.414062 1.828125 -3 C 1.671875 -2.59375 1.679688 -2.234375 1.859375 -1.921875 C 1.921875 -1.804688 2.003906 -1.707031 2.109375 -1.625 C 2.210938 -1.550781 2.332031 -1.503906 2.46875 -1.484375 Z M 2.46875 -1.484375"/></g><g id="u"><path d="M 9.828125 -7.375 C 10.023438 -7.78125 10.160156 -7.96875 10.234375 -7.9375 C 10.304688 -7.90625 10.320312 -7.742188 10.28125 -7.453125 C 10.25 -7.160156 10.1875 -6.828125 10.09375 -6.453125 C 9.957031 -5.890625 9.722656 -5.234375 9.390625 -4.484375 C 9.066406 -3.742188 8.707031 -3.070312 8.3125 -2.46875 C 7.707031 -1.625 6.96875 -0.988281 6.09375 -0.5625 C 5.21875 -0.132812 4.421875 -0.0234375 3.703125 -0.234375 C 2.992188 -0.453125 2.582031 -1.128906 2.46875 -2.265625 C 2.445312 -3.210938 2.53125 -4.25 2.71875 -5.375 C 2.78125 -5.851562 2.84375 -6.316406 2.90625 -6.765625 C 2.90625 -6.929688 2.863281 -7.054688 2.78125 -7.140625 C 2.707031 -7.234375 2.601562 -7.269531 2.46875 -7.25 C 2.375 -7.25 2.269531 -7.25 2.15625 -7.25 C 1.59375 -7.15625 1.019531 -7.164062 0.4375 -7.28125 C -0.257812 -7.476562 -0.664062 -7.820312 -0.78125 -8.3125 C -0.894531 -8.800781 -0.882812 -9.441406 -0.75 -10.234375 C -0.675781 -10.796875 -0.460938 -11.21875 -0.109375 -11.5 C 0.234375 -11.78125 0.640625 -11.894531 1.109375 -11.84375 C 1.765625 -11.789062 2.082031 -11.539062 2.0625 -11.09375 C 2.039062 -10.65625 1.914062 -10.179688 1.6875 -9.671875 C 1.488281 -9.253906 1.382812 -8.90625 1.375 -8.625 C 1.363281 -8.34375 1.601562 -8.242188 2.09375 -8.328125 C 2.207031 -8.359375 2.332031 -8.394531 2.46875 -8.4375 C 2.65625 -8.5 2.863281 -8.554688 3.09375 -8.609375 C 3.332031 -8.671875 3.640625 -8.6875 4.015625 -8.65625 C 4.472656 -8.632812 4.773438 -8.425781 4.921875 -8.03125 C 5.066406 -7.632812 5.128906 -7.140625 5.109375 -6.546875 C 5.085938 -5.953125 5.035156 -5.347656 4.953125 -4.734375 C 4.835938 -3.960938 4.78125 -3.300781 4.78125 -2.75 C 4.78125 -2.195312 4.9375 -1.875 5.25 -1.78125 C 5.675781 -1.675781 6.304688 -2.0625 7.140625 -2.9375 C 7.984375 -3.8125 8.878906 -5.289062 9.828125 -7.375 Z M 9.828125 -7.375"/></g><g id="a"><path d="M 1.234375 -1.261719 L 3.257812 -1.261719 L 3.738281 0 L 4.507812 0 L 2.503906 -5.054688 L 1.976562 -5.054688 L -0.0273438 0 L 0.75 0 Z M 2.996094 -1.941406 L 1.496094 -1.941406 L 2.246094 -3.90625 Z M 2.996094 -1.941406"/></g><g id="c"><path d="M 2.4375 -4.992188 L 0.613281 -4.992188 L 0.613281 0 L 1.339844 0 L 1.339844 -1.660156 L 2.4375 -1.660156 C 3.515625 -1.660156 4.058594 -2.488281 4.058594 -3.324219 C 4.058594 -4.15625 3.515625 -4.992188 2.4375 -4.992188 Z M 2.4375 -2.375 L 1.339844 -2.375 L 1.339844 -4.265625 L 2.4375 -4.265625 C 3.046875 -4.265625 3.34375 -3.792969 3.34375 -3.316406 C 3.34375 -2.84375 3.046875 -2.375 2.4375 -2.375 Z M 2.4375 -2.375"/></g><g id="d"><path d="M 1.226562 -3.378906 L 1.226562 -3.851562 L 0.535156 -3.851562 L 0.535156 0 L 1.226562 0 L 1.226562 -2.089844 C 1.226562 -2.796875 1.769531 -3.316406 2.417969 -3.316406 C 2.53125 -3.316406 2.652344 -3.300781 2.773438 -3.265625 L 2.773438 -3.878906 C 2.617188 -3.914062 2.46875 -3.9375 2.316406 -3.9375 C 1.890625 -3.9375 1.503906 -3.765625 1.226562 -3.378906 Z M 1.226562 -3.378906"/></g><g id="e"><path d="M 4.527344 -1.925781 C 4.527344 -3.253906 3.5 -3.921875 2.460938 -3.921875 C 1.410156 -3.921875 0.371094 -3.257812 0.371094 -1.925781 C 0.371094 -0.597656 1.40625 0.0703125 2.4375 0.0703125 C 3.488281 0.0703125 4.527344 -0.59375 4.527344 -1.925781 Z M 1.070312 -1.925781 C 1.070312 -2.84375 1.761719 -3.300781 2.460938 -3.300781 C 3.144531 -3.300781 3.835938 -2.839844 3.835938 -1.925781 C 3.835938 -1.019531 3.144531 -0.554688 2.453125 -0.554688 C 1.761719 -0.554688 1.070312 -1.011719 1.070312 -1.925781 Z M 1.070312 -1.925781"/></g><g id="f"><path d="M 0.820312 0 L 1.519531 0 L 1.519531 -3.28125 L 2.304688 -3.28125 L 2.304688 -3.886719 L 1.519531 -3.886719 C 1.519531 -4.363281 1.769531 -4.484375 2.140625 -4.484375 C 2.21875 -4.484375 2.304688 -4.480469 2.390625 -4.472656 L 2.390625 -5.054688 C 2.289062 -5.0625 2.195312 -5.070312 2.109375 -5.070312 C 1.269531 -5.070312 0.820312 -4.726562 0.820312 -3.886719 L 0.226562 -3.886719 L 0.226562 -3.28125 L 0.820312 -3.28125 Z M 0.820312 0"/></g><g id="g"><path d="M 4.320312 -2.097656 C 4.242188 -3.308594 3.300781 -3.914062 2.347656 -3.914062 C 1.328125 -3.914062 0.34375 -3.253906 0.34375 -1.925781 C 0.34375 -0.597656 1.339844 0.0703125 2.332031 0.0703125 C 3.125 0.0703125 3.914062 -0.347656 4.207031 -1.191406 L 3.488281 -1.191406 C 3.257812 -0.757812 2.816406 -0.550781 2.339844 -0.550781 C 1.761719 -0.550781 1.042969 -1.003906 1.042969 -1.761719 L 4.308594 -1.761719 C 4.320312 -1.824219 4.328125 -1.898438 4.328125 -1.976562 C 4.328125 -2.019531 4.328125 -2.054688 4.320312 -2.097656 Z M 3.585938 -2.339844 L 1.070312 -2.339844 C 1.210938 -3.023438 1.78125 -3.300781 2.347656 -3.300781 C 2.902344 -3.300781 3.453125 -3.03125 3.585938 -2.339844 Z M 3.585938 -2.339844"/></g><g id="h"><path d="M 1.019531 -2.746094 C 1.019531 -3.144531 1.417969 -3.308594 1.847656 -3.308594 C 2.269531 -3.308594 2.632812 -3.144531 2.667969 -2.800781 L 3.359375 -2.800781 C 3.308594 -3.609375 2.632812 -3.9375 1.867188 -3.9375 C 1.121094 -3.9375 0.328125 -3.621094 0.328125 -2.730469 C 0.328125 -1.867188 1.148438 -1.65625 1.839844 -1.625 C 2.175781 -1.613281 2.773438 -1.539062 2.773438 -1.113281 C 2.773438 -0.65625 2.226562 -0.542969 1.875 -0.542969 C 1.398438 -0.542969 1 -0.757812 0.96875 -1.183594 L 0.269531 -1.183594 C 0.320312 -0.269531 1.0625 0.0625 1.859375 0.0625 C 2.589844 0.0625 3.472656 -0.199219 3.472656 -1.097656 C 3.472656 -1.976562 2.644531 -2.203125 1.917969 -2.253906 C 1.574219 -2.273438 1.019531 -2.261719 1.019531 -2.746094 Z M 1.019531 -2.746094"/></g><g id="i"><path d="M 0.492188 -4.847656 C 0.492188 -4.578125 0.714844 -4.441406 0.925781 -4.441406 C 1.148438 -4.441406 1.363281 -4.578125 1.363281 -4.847656 C 1.363281 -5.121094 1.148438 -5.25 0.933594 -5.25 C 0.714844 -5.25 0.492188 -5.113281 0.492188 -4.847656 Z M 0.578125 -3.902344 L 1.277344 -3.902344 L 1.277344 0 L 0.578125 0 Z M 0.578125 -3.902344"/></g><g id="j"><path d="M 1.234375 -3.378906 L 1.234375 -3.859375 L 0.535156 -3.859375 L 0.535156 0 L 1.234375 0 L 1.234375 -2.097656 C 1.234375 -2.765625 1.632812 -3.292969 2.367188 -3.292969 C 3.210938 -3.292969 3.402344 -2.796875 3.402344 -2.066406 L 3.402344 0 L 4.09375 0 L 4.09375 -2.074219 C 4.09375 -3.179688 3.59375 -3.914062 2.417969 -3.914062 C 1.933594 -3.914062 1.519531 -3.792969 1.234375 -3.378906 Z M 1.234375 -3.378906"/></g><g id="k"><path d="M 4.542969 0 L 4.542969 -3.859375 L 3.84375 -3.859375 L 3.851562 -3.34375 C 3.507812 -3.808594 2.929688 -3.921875 2.453125 -3.921875 C 1.148438 -3.921875 0.390625 -2.988281 0.390625 -1.945312 C 0.390625 -0.882812 1.121094 0.0625 2.46875 0.0625 C 2.945312 0.0585938 3.566406 -0.101562 3.84375 -0.519531 L 3.84375 0 Z M 3.84375 -1.933594 C 3.84375 -1.003906 3.09375 -0.554688 2.453125 -0.554688 C 1.597656 -0.554688 1.089844 -1.21875 1.089844 -1.945312 C 1.089844 -2.710938 1.605469 -3.308594 2.453125 -3.308594 C 3.109375 -3.308594 3.84375 -2.851562 3.84375 -1.933594 Z M 3.84375 -1.933594"/></g><g id="l"><path d="M 0.535156 0 L 1.234375 0 L 1.234375 -4.992188 L 0.535156 -4.992188 Z M 0.535156 0"/></g><g id="m"><path d="M 3.058594 -2.375 L 3.9375 0.0273438 L 4.441406 0.0273438 L 6.125 -5.042969 L 5.371094 -5.042969 C 5 -3.90625 4.558594 -2.582031 4.164062 -1.390625 L 3.351562 -3.714844 L 2.773438 -3.714844 L 1.953125 -1.382812 L 0.742188 -5.042969 L -0.0078125 -5.042969 L 1.691406 0.0273438 L 2.195312 0.0273438 C 2.453125 -0.726562 2.773438 -1.5625 3.058594 -2.375 Z M 3.058594 -2.375"/></g><g id="n"><path d="M 1.253906 -3.359375 L 1.253906 -4.992188 L 0.554688 -4.992188 L 0.554688 0 L 1.253906 0 L 1.253906 -0.519531 C 1.535156 -0.101562 2.0625 0.0585938 2.539062 0.0625 C 3.886719 0.0625 4.535156 -0.882812 4.535156 -1.945312 C 4.535156 -2.988281 3.859375 -3.921875 2.554688 -3.921875 C 2.074219 -3.921875 1.589844 -3.816406 1.253906 -3.359375 Z M 1.253906 -1.933594 C 1.253906 -2.851562 1.902344 -3.308594 2.554688 -3.308594 C 3.410156 -3.308594 3.835938 -2.625 3.835938 -1.933594 C 3.835938 -1.234375 3.402344 -0.554688 2.546875 -0.554688 C 1.902344 -0.554688 1.253906 -1.003906 1.253906 -1.933594 Z M 1.253906 -1.933594"/></g><g id="o"><path d="M 2.402344 -5.035156 L 0.613281 -5.035156 L 0.613281 0 L 2.402344 0 C 4.035156 0 4.855469 -1.242188 4.855469 -2.488281 C 4.855469 -3.738281 4.035156 -5.035156 2.402344 -5.035156 Z M 2.402344 -0.71875 L 1.332031 -0.71875 L 1.332031 -4.316406 L 2.402344 -4.316406 C 3.558594 -4.316406 4.144531 -3.375 4.144531 -2.488281 C 4.144531 -1.605469 3.558594 -0.71875 2.402344 -0.71875 Z M 2.402344 -0.71875"/></g><g id="p"><path d="M 4.398438 -0.144531 L 4.398438 -3.859375 L 3.707031 -3.859375 L 3.707031 -3.34375 C 3.421875 -3.765625 2.882812 -3.921875 2.402344 -3.921875 C 1.0625 -3.921875 0.355469 -2.972656 0.355469 -1.917969 C 0.355469 -0.871094 1.105469 -0.0078125 2.402344 -0.0078125 C 2.882812 -0.0078125 3.367188 -0.105469 3.703125 -0.550781 L 3.703125 -0.144531 C 3.703125 0.613281 3.003906 0.898438 2.375 0.898438 C 1.875 0.898438 1.234375 0.742188 1.234375 0.257812 L 0.542969 0.257812 C 0.542969 1.132812 1.449219 1.519531 2.417969 1.519531 C 3.375 1.519531 4.398438 1.054688 4.398438 -0.144531 Z M 2.394531 -0.621094 C 1.546875 -0.621094 1.0625 -1.242188 1.054688 -1.917969 C 1.054688 -2.609375 1.546875 -3.308594 2.410156 -3.308594 C 3.265625 -3.308594 3.703125 -2.722656 3.703125 -2.023438 C 3.703125 -1.3125 3.265625 -0.621094 2.394531 -0.621094 Z M 2.394531 -0.621094"/></g></defs><g fill="#EBEBEB"><use x="52.584" y="70.244" xmlns:xlink="http://www.w3.org/1999/xlink" xlink:href="#a" xlink:type="simple" xlink:actuate="onLoad" xlink:show="embed"/></g><g fill="#EBEBEB"><use x="57.106" y="70.244" xmlns:xlink="http://www.w3.org/1999/xlink" xlink:href="#b" xlink:type="simple" xlink:actuate="onLoad" xlink:show="embed"/></g><g fill="#EBEBEB"><use x="58.881" y="70.244" xmlns:xlink="http://www.w3.org/1999/xlink" xlink:href="#c" xlink:type="simple" xlink:actuate="onLoad" xlink:show="embed"/></g><g fill="#EBEBEB"><use x="63.118" y="70.244" xmlns:xlink="http://www.w3.org/1999/xlink" xlink:href="#d" xlink:type="simple" xlink:actuate="onLoad" xlink:show="embed"/></g><g fill="#EBEBEB"><use x="66.113" y="70.244" xmlns:xlink="http://www.w3.org/1999/xlink" xlink:href="#e" xlink:type="simple" xlink:actuate="onLoad" xlink:show="embed"/></g><g fill="#EBEBEB"><use x="71.062" y="70.244" xmlns:xlink="http://www.w3.org/1999/xlink" xlink:href="#f" xlink:type="simple" xlink:actuate="onLoad" xlink:show="embed"/></g><g fill="#EBEBEB"><use x="73.565" y="70.244" xmlns:xlink="http://www.w3.org/1999/xlink" xlink:href="#g" xlink:type="simple" xlink:actuate="onLoad" xlink:show="embed"/></g><g fill="#EBEBEB"><use x="78.272" y="70.244" xmlns:xlink="http://www.w3.org/1999/xlink" xlink:href="#h" xlink:type="simple" xlink:actuate="onLoad" xlink:show="embed"/></g><g fill="#EBEBEB"><use x="81.988" y="70.244" xmlns:xlink="http://www.w3.org/1999/xlink" xlink:href="#h" xlink:type="simple" xlink:actuate="onLoad" xlink:show="embed"/></g><g fill="#EBEBEB"><use x="85.703" y="70.244" xmlns:xlink="http://www.w3.org/1999/xlink" xlink:href="#i" xlink:type="simple" xlink:actuate="onLoad" xlink:show="embed"/></g><g fill="#EBEBEB"><use x="87.622" y="70.244" xmlns:xlink="http://www.w3.org/1999/xlink" xlink:href="#e" xlink:type="simple" xlink:actuate="onLoad" xlink:show="embed"/></g><g fill="#EBEBEB"><use x="92.571" y="70.244" xmlns:xlink="http://www.w3.org/1999/xlink" xlink:href="#j" xlink:type="simple" xlink:actuate="onLoad" xlink:show="embed"/></g><g fill="#EBEBEB"><use x="97.192" y="70.244" xmlns:xlink="http://www.w3.org/1999/xlink" xlink:href="#k" xlink:type="simple" xlink:actuate="onLoad" xlink:show="embed"/></g><g fill="#EBEBEB"><use x="102.198" y="70.244" xmlns:xlink="http://www.w3.org/1999/xlink" xlink:href="#l" xlink:type="simple" xlink:actuate="onLoad" xlink:show="embed"/></g><g fill="#EBEBEB"><use x="103.967" y="70.244" xmlns:xlink="http://www.w3.org/1999/xlink" xlink:href="#b" xlink:type="simple" xlink:actuate="onLoad" xlink:show="embed"/></g><g fill="#EBEBEB"><use x="105.743" y="70.244" xmlns:xlink="http://www.w3.org/1999/xlink" xlink:href="#m" xlink:type="simple" xlink:actuate="onLoad" xlink:show="embed"/></g><g fill="#EBEBEB"><use x="111.833" y="70.244" xmlns:xlink="http://www.w3.org/1999/xlink" xlink:href="#g" xlink:type="simple" xlink:actuate="onLoad" xlink:show="embed"/></g><g fill="#EBEBEB"><use x="116.54" y="70.244" xmlns:xlink="http://www.w3.org/1999/xlink" xlink:href="#n" xlink:type="simple" xlink:actuate="onLoad" xlink:show="embed"/></g><g fill="#EBEBEB"><use x="121.397" y="70.244" xmlns:xlink="http://www.w3.org/1999/xlink" xlink:href="#b" xlink:type="simple" xlink:actuate="onLoad" xlink:show="embed"/></g><g fill="#EBEBEB"><use x="123.172" y="70.244" xmlns:xlink="http://www.w3.org/1999/xlink" xlink:href="#o" xlink:type="simple" xlink:actuate="onLoad" xlink:show="embed"/></g><g fill="#EBEBEB"><use x="128.343" y="70.244" xmlns:xlink="http://www.w3.org/1999/xlink" xlink:href="#g" xlink:type="simple" xlink:actuate="onLoad" xlink:show="embed"/></g><g fill="#EBEBEB"><use x="133.05" y="70.244" xmlns:xlink="http://www.w3.org/1999/xlink" xlink:href="#h" xlink:type="simple" xlink:actuate="onLoad" xlink:show="embed"/></g><g fill="#EBEBEB"><use x="136.765" y="70.244" xmlns:xlink="http://www.w3.org/1999/xlink" xlink:href="#i" xlink:type="simple" xlink:actuate="onLoad" xlink:show="embed"/></g><g fill="#EBEBEB"><use x="138.683" y="70.244" xmlns:xlink="http://www.w3.org/1999/xlink" xlink:href="#p" xlink:type="simple" xlink:actuate="onLoad" xlink:show="embed"/></g><g fill="#EBEBEB"><use x="143.633" y="70.244" xmlns:xlink="http://www.w3.org/1999/xlink" xlink:href="#j" xlink:type="simple" xlink:actuate="onLoad" xlink:show="embed"/></g><g fill="#EBEBEB"><use x="148.254" y="70.244" xmlns:xlink="http://www.w3.org/1999/xlink" xlink:href="#g" xlink:type="simple" xlink:actuate="onLoad" xlink:show="embed"/></g><g fill="#EBEBEB"><use x="152.961" y="70.244" xmlns:xlink="http://www.w3.org/1999/xlink" xlink:href="#d" xlink:type="simple" xlink:actuate="onLoad" xlink:show="embed"/></g><g fill="#FF3F71"><use x="5.354" y="64.245" xmlns:xlink="http://www.w3.org/1999/xlink" xlink:href="#q" xlink:type="simple" xlink:actuate="onLoad" xlink:show="embed"/></g><g fill="#FF3F71"><use x="54.908" y="64.245" xmlns:xlink="http://www.w3.org/1999/xlink" xlink:href="#r" xlink:type="simple" xlink:actuate="onLoad" xlink:show="embed"/></g><g fill="#FF3F71"><use x="70.548" y="64.245" xmlns:xlink="http://www.w3.org/1999/xlink" xlink:href="#s" xlink:type="simple" xlink:actuate="onLoad" xlink:show="embed"/></g><g fill="#FF3F71"><use x="78.114" y="64.245" xmlns:xlink="http://www.w3.org/1999/xlink" xlink:href="#t" xlink:type="simple" xlink:actuate="onLoad" xlink:show="embed"/></g><g fill="#FF3F71"><use x="86.419" y="64.245" xmlns:xlink="http://www.w3.org/1999/xlink" xlink:href="#r" xlink:type="simple" xlink:actuate="onLoad" xlink:show="embed"/></g><g fill="#FF3F71"><use x="102.059" y="64.245" xmlns:xlink="http://www.w3.org/1999/xlink" xlink:href="#s" xlink:type="simple" xlink:actuate="onLoad" xlink:show="embed"/></g><g fill="#FF3F71"><use x="109.624" y="64.245" xmlns:xlink="http://www.w3.org/1999/xlink" xlink:href="#u" xlink:type="simple" xlink:actuate="onLoad" xlink:show="embed"/></g></svg>