<svg xmlns="http://www.w3.org/2000/svg" xmlns:xlink="http://www.w3.org/1999/xlink" width="127.5" viewBox="0 0 127.5 37.5" height="37.5" version="1.0"><defs><g id="a"><path d="M 7.113281 0.261719 C 10.5625 0.261719 13.566406 -1.554688 13.144531 -4.847656 C 12.773438 -8.746094 4.265625 -9.035156 4.265625 -12.617188 C 4.265625 -14.039062 5.480469 -14.59375 6.875 -14.59375 C 8.429688 -14.59375 9.457031 -13.933594 9.457031 -12.878906 C 9.457031 -11.5625 8.5625 -11.457031 8.5625 -11.457031 C 8.5625 -10.535156 9.296875 -9.691406 10.429688 -9.691406 C 11.328125 -9.691406 12.011719 -10.273438 12.011719 -11.195312 C 12.011719 -13.566406 9.484375 -14.960938 6.820312 -14.960938 C 3.554688 -14.960938 0.789062 -13.488281 1.160156 -10.195312 C 1.632812 -5.898438 10.035156 -5.375 10.035156 -2.054688 C 10.035156 -0.449219 8.058594 -0.078125 6.953125 -0.078125 C 5.503906 -0.078125 3.792969 -0.710938 3.792969 -2.238281 C 3.792969 -2.371094 3.792969 -2.503906 3.820312 -2.660156 C 3.949219 -3.476562 4.742188 -3.582031 4.742188 -3.582031 C 4.742188 -4.664062 3.898438 -5.609375 2.609375 -5.609375 C 1.582031 -5.609375 0.789062 -4.925781 0.789062 -3.871094 C 0.789062 -1.289062 3.871094 0.261719 7.113281 0.261719 Z M 7.113281 0.261719"/></g><g id="b"><path d="M 1.316406 0 L 5.292969 0 L 5.292969 -7.324219 L 10.617188 -7.324219 L 10.617188 0 L 14.59375 0 L 14.59375 -14.75 L 10.617188 -14.75 L 10.617188 -7.585938 L 5.292969 -7.585938 L 5.292969 -14.75 L 1.316406 -14.75 Z M 1.316406 0"/></g><g id="c"><path d="M 1.316406 0 L 4.820312 0 L 4.820312 -14.75 L 1.316406 -14.75 Z M 1.316406 0"/></g><g id="d"><path d="M 1.316406 0 L 5.292969 0 L 5.292969 -7.953125 C 10.773438 -7.953125 7.847656 -0.660156 12.773438 0 C 14.777344 0.261719 15.75 0 15.75 0 C 15.75 0 14.777344 -0.554688 13.855469 -2.976562 C 12.667969 -6.109375 12.195312 -8.007812 8.71875 -8.007812 C 10.695312 -8.007812 12.933594 -9.589844 12.933594 -11.351562 C 12.933594 -13.800781 10.695312 -14.75 7.558594 -14.75 L 1.316406 -14.75 Z M 5.292969 -8.164062 L 5.292969 -14.566406 L 6.585938 -14.566406 C 8.164062 -14.566406 8.71875 -13.144531 8.71875 -11.273438 C 8.71875 -9.457031 8.269531 -8.164062 6.691406 -8.164062 Z M 5.292969 -8.164062"/></g><g id="f"><path d="M 3.621094 -6.148438 C 3.582031 -6.242188 3.507812 -6.296875 3.40625 -6.296875 L 2.546875 -6.296875 C 2.445312 -6.296875 2.371094 -6.242188 2.332031 -6.148438 L -0.0546875 0.183594 C 1 0 1.800781 -0.617188 2.246094 -2.050781 C 2.453125 -1.582031 2.945312 -1.269531 3.695312 -1.269531 L 4.03125 -1.269531 L 4.398438 -0.148438 C 4.433594 -0.0351562 4.5 0 4.601562 0 L 5.703125 0 C 5.804688 0 5.871094 -0.0546875 5.871094 -0.140625 C 5.871094 -0.15625 5.859375 -0.183594 5.851562 -0.214844 Z M 2.980469 -4.460938 L 3.65625 -2.40625 L 2.355469 -2.40625 Z M 2.980469 -4.460938"/></g><g id="h"><path d="M 1.75 -6.296875 L 1.75 -6.292969 C 1.734375 -6.296875 1.722656 -6.296875 1.703125 -6.296875 L 0.683594 -6.296875 C 0.566406 -6.296875 0.5 -6.230469 0.5 -6.109375 L 0.5 0.183594 C 1.304688 0.09375 1.890625 -0.59375 1.890625 -1.75 L 1.890625 -2.25 L 2.59375 -2.25 C 4.230469 -2.25 4.859375 -3.007812 4.859375 -4.277344 C 4.859375 -5.492188 4.230469 -6.296875 2.59375 -6.296875 Z M 1.890625 -3.433594 L 1.890625 -5.09375 L 2.453125 -5.09375 C 2.75 -5.09375 3.472656 -5.101562 3.472656 -4.277344 C 3.472656 -3.445312 2.742188 -3.433594 2.453125 -3.433594 Z M 1.890625 -3.433594"/></g><g id="k"><path d="M 2.898438 -6.945312 C 2.183594 -6.945312 0.933594 -6.480469 0.933594 -4.667969 L 0.933594 -4.082031 L 0.34375 -4.082031 C 0.222656 -4.082031 0.15625 -4.019531 0.15625 -3.898438 L 0.15625 -3.195312 C 0.15625 -3.074219 0.222656 -3.007812 0.34375 -3.007812 L 0.933594 -3.007812 L 0.933594 -0.183594 C 0.933594 -0.0664062 1 0 1.121094 0 L 2.140625 0 C 2.257812 0 2.324219 -0.0664062 2.324219 -0.183594 L 2.324219 -3.007812 L 2.972656 -3.007812 C 3.09375 -3.007812 3.15625 -3.074219 3.15625 -3.195312 L 3.15625 -3.898438 C 3.15625 -4.019531 3.09375 -4.082031 2.972656 -4.082031 L 2.324219 -4.082031 L 2.324219 -4.667969 C 2.324219 -5.492188 2.621094 -5.675781 3.09375 -5.675781 C 3.210938 -5.675781 3.277344 -5.742188 3.277344 -5.859375 L 3.277344 -6.757812 C 3.277344 -6.878906 3.210938 -6.945312 3.09375 -6.945312 Z M 2.898438 -6.945312"/></g><g id="l"><path d="M 2.628906 -4.230469 C 1.257812 -4.230469 0.25 -3.371094 0.25 -2.035156 C 0.25 -0.683594 1.222656 0.148438 2.628906 0.148438 C 3.648438 0.148438 4.453125 -0.296875 4.777344 -1.222656 C 4.824219 -1.351562 4.75 -1.433594 4.621094 -1.433594 L 3.59375 -1.433594 C 3.492188 -1.433594 3.433594 -1.378906 3.390625 -1.277344 C 3.277344 -1.027344 3.007812 -0.84375 2.601562 -0.84375 C 2.082031 -0.84375 1.757812 -1.210938 1.722656 -1.777344 L 4.703125 -1.777344 C 4.824219 -1.777344 4.886719 -1.84375 4.886719 -1.960938 L 4.886719 -2.128906 C 4.886719 -3.480469 3.871094 -4.230469 2.628906 -4.230469 Z M 1.742188 -2.527344 C 1.820312 -2.972656 2.070312 -3.285156 2.582031 -3.285156 C 3.074219 -3.285156 3.390625 -2.972656 3.417969 -2.527344 Z M 1.742188 -2.527344"/></g><g id="p"><path d="M 3.941406 -3.421875 C 3.578125 -3.925781 3.003906 -4.230469 2.304688 -4.230469 C 1.101562 -4.230469 0.269531 -3.332031 0.269531 -2.046875 C 0.269531 -0.75 1.101562 0.148438 2.304688 0.148438 C 3.003906 0.148438 3.578125 -0.15625 3.941406 -0.667969 C 4.167969 -0.214844 4.554688 0.0351562 5.09375 0.09375 L 5.09375 -4.175781 C 4.554688 -4.121094 4.167969 -3.871094 3.941406 -3.421875 Z M 2.730469 -0.964844 C 2.167969 -0.964844 1.757812 -1.40625 1.757812 -2.035156 C 1.757812 -2.667969 2.167969 -3.109375 2.730469 -3.109375 C 3.296875 -3.109375 3.703125 -2.667969 3.703125 -2.035156 C 3.703125 -1.40625 3.296875 -0.964844 2.730469 -0.964844 Z M 2.730469 -0.964844"/></g><g id="r"><path d="M 5.804688 -2.351562 L 4.527344 -6.480469 C 3.898438 -6.3125 3.433594 -6.007812 3.027344 -4.667969 L 2.332031 -2.359375 L 1.546875 -6.128906 C 1.527344 -6.242188 1.453125 -6.296875 1.34375 -6.296875 L 0.285156 -6.296875 C 0.15625 -6.296875 0.09375 -6.210938 0.121094 -6.09375 L 1.535156 -0.15625 C 1.566406 -0.0546875 1.628906 0 1.742188 0 L 2.695312 0 C 2.796875 0 2.871094 -0.0546875 2.898438 -0.15625 L 4.078125 -4.007812 L 5.242188 -0.15625 C 5.269531 -0.0546875 5.34375 0 5.445312 0 L 6.398438 0 C 6.507812 0 6.574219 -0.0546875 6.601562 -0.15625 L 8.101562 -6.480469 C 7.230469 -6.480469 6.554688 -5.925781 6.269531 -4.566406 Z M 5.804688 -2.351562"/></g><g id="s"><path d="M 3.230469 -4.230469 C 2.667969 -4.230469 2.183594 -4.035156 1.832031 -3.695312 L 1.832031 -5.183594 C 1.832031 -6.136719 1.34375 -6.757812 0.445312 -6.945312 L 0.445312 0.09375 C 1.007812 0.09375 1.410156 -0.152344 1.632812 -0.617188 C 1.996094 -0.132812 2.554688 0.148438 3.230469 0.148438 C 4.433594 0.148438 5.269531 -0.75 5.269531 -2.046875 C 5.269531 -3.332031 4.433594 -4.230469 3.230469 -4.230469 Z M 2.804688 -0.964844 C 2.242188 -0.964844 1.832031 -1.40625 1.832031 -2.035156 C 1.832031 -2.667969 2.242188 -3.109375 2.804688 -3.109375 C 3.371094 -3.109375 3.777344 -2.667969 3.777344 -2.035156 C 3.777344 -1.40625 3.371094 -0.964844 2.804688 -0.964844 Z M 2.804688 -0.964844"/></g><g id="t"><path d="M 2.183594 0 C 4.527344 0 5.59375 -1.371094 5.59375 -3.148438 C 5.59375 -4.925781 4.519531 -6.296875 2.183594 -6.296875 L 0.683594 -6.296875 C 0.566406 -6.296875 0.5 -6.230469 0.5 -6.109375 L 0.5 -0.183594 C 0.5 -0.0664062 0.566406 0 0.683594 0 Z M 1.890625 -5.035156 L 2.316406 -5.035156 C 3.667969 -5.035156 4.203125 -4.195312 4.203125 -3.148438 C 4.203125 -2.101562 3.65625 -1.257812 2.316406 -1.257812 L 1.890625 -1.257812 Z M 1.890625 -5.035156"/></g><g id="u"><path d="M 3.902344 -3.46875 C 3.542969 -3.949219 2.980469 -4.230469 2.304688 -4.230469 C 1.101562 -4.230469 0.269531 -3.332031 0.269531 -2.046875 C 0.269531 -0.75 1.101562 0.148438 2.304688 0.148438 C 2.871094 0.148438 3.351562 -0.046875 3.703125 -0.390625 L 3.703125 0.351562 C 3.703125 1.007812 3.359375 1.285156 2.75 1.285156 C 2.195312 1.285156 1.851562 1.09375 1.757812 0.695312 C 1.730469 0.574219 1.667969 0.519531 1.554688 0.519531 L 0.535156 0.519531 C 0.417969 0.519531 0.34375 0.59375 0.359375 0.714844 C 0.519531 1.898438 1.59375 2.316406 2.730469 2.316406 C 4.121094 2.316406 5.09375 1.703125 5.09375 0.359375 L 5.09375 -4.175781 C 4.527344 -4.175781 4.125 -3.929688 3.902344 -3.46875 Z M 2.730469 -0.964844 C 2.167969 -0.964844 1.757812 -1.40625 1.757812 -2.035156 C 1.757812 -2.667969 2.167969 -3.109375 2.730469 -3.109375 C 3.296875 -3.109375 3.703125 -2.667969 3.703125 -2.035156 C 3.703125 -1.40625 3.296875 -0.964844 2.730469 -0.964844 Z M 2.730469 -0.964844"/></g><g id="i"><path d="M 3.167969 -4.136719 C 3.074219 -4.15625 2.960938 -4.175781 2.859375 -4.175781 C 2.371094 -4.175781 1.910156 -3.953125 1.621094 -3.359375 C 1.398438 -3.78125 1 -4.058594 0.445312 -4.175781 L 0.445312 -0.183594 C 0.445312 -0.0664062 0.507812 0 0.628906 0 L 1.648438 0 C 1.769531 0 1.832031 -0.0664062 1.832031 -0.183594 L 1.832031 -2.054688 C 1.890625 -2.621094 2.175781 -2.917969 2.675781 -2.917969 C 2.804688 -2.917969 2.945312 -2.898438 3.101562 -2.859375 C 3.230469 -2.824219 3.316406 -2.878906 3.316406 -3.007812 L 3.316406 -3.925781 C 3.316406 -4.027344 3.269531 -4.109375 3.167969 -4.136719 Z M 3.167969 -4.136719"/></g><g id="j"><path d="M 2.59375 0.148438 C 4.046875 0.148438 4.917969 -0.75 4.917969 -2.035156 C 4.917969 -3.316406 4.035156 -4.230469 2.59375 -4.230469 C 1.140625 -4.230469 0.257812 -3.316406 0.257812 -2.035156 C 0.257812 -0.757812 1.128906 0.148438 2.59375 0.148438 Z M 2.59375 -0.933594 C 1.972656 -0.933594 1.640625 -1.417969 1.640625 -2.027344 C 1.640625 -2.648438 1.980469 -3.148438 2.59375 -3.148438 C 3.203125 -3.148438 3.535156 -2.65625 3.535156 -2.027344 C 3.535156 -1.40625 3.203125 -0.933594 2.59375 -0.933594 Z M 2.59375 -0.933594"/></g><g id="m"><path d="M 2.460938 0.148438 C 3.769531 0.148438 4.527344 -0.398438 4.527344 -1.34375 C 4.527344 -3.027344 1.796875 -2.390625 1.796875 -3.101562 C 1.796875 -3.242188 1.933594 -3.371094 2.257812 -3.371094 C 2.65625 -3.371094 2.851562 -3.242188 2.960938 -3 C 3.007812 -2.898438 3.074219 -2.84375 3.175781 -2.84375 L 4.167969 -2.84375 C 4.296875 -2.84375 4.359375 -2.917969 4.332031 -3.046875 C 4.128906 -3.84375 3.417969 -4.230469 2.332031 -4.230469 C 1.074219 -4.230469 0.398438 -3.703125 0.398438 -2.917969 C 0.398438 -1.269531 3.128906 -1.972656 3.128906 -1.210938 C 3.128906 -0.980469 2.925781 -0.816406 2.492188 -0.816406 C 2.242188 -0.816406 1.730469 -0.90625 1.621094 -1.34375 C 1.59375 -1.453125 1.535156 -1.519531 1.425781 -1.519531 L 0.417969 -1.519531 C 0.296875 -1.519531 0.222656 -1.445312 0.242188 -1.324219 C 0.417969 -0.296875 1.285156 0.148438 2.460938 0.148438 Z M 2.460938 0.148438"/></g><g id="n"><path d="M 1.074219 -4.886719 C 1.574219 -4.886719 2.09375 -5.136719 2.09375 -5.636719 C 2.09375 -6.128906 1.574219 -6.386719 1.074219 -6.386719 C 0.566406 -6.386719 0.0546875 -6.128906 0.0546875 -5.636719 C 0.0546875 -5.136719 0.566406 -4.886719 1.074219 -4.886719 Z M 1.648438 0 C 1.769531 0 1.832031 -0.0664062 1.832031 -0.183594 L 1.832031 -2.417969 C 1.832031 -3.371094 1.34375 -3.992188 0.445312 -4.175781 L 0.445312 -0.183594 C 0.445312 -0.0664062 0.507812 0 0.628906 0 Z M 1.648438 0"/></g><g id="o"><path d="M 3.074219 -4.230469 C 2.535156 -4.230469 2.035156 -3.996094 1.617188 -3.375 C 1.390625 -3.785156 0.992188 -4.066406 0.445312 -4.175781 L 0.445312 -0.183594 C 0.445312 -0.0664062 0.507812 0 0.628906 0 L 1.648438 0 C 1.769531 0 1.832031 -0.0664062 1.832031 -0.183594 L 1.832031 -2.300781 C 1.890625 -2.808594 2.207031 -3.121094 2.601562 -3.121094 C 3.035156 -3.121094 3.222656 -2.851562 3.222656 -2.371094 L 3.222656 -0.183594 C 3.222656 -0.0664062 3.285156 0 3.40625 0 L 4.425781 0 C 4.546875 0 4.609375 -0.0664062 4.609375 -0.183594 L 4.609375 -2.371094 C 4.609375 -3.480469 4.167969 -4.230469 3.074219 -4.230469 Z M 3.074219 -4.230469"/></g><g id="q"><path d="M 1.648438 0 C 1.769531 0 1.832031 -0.0664062 1.832031 -0.183594 L 1.832031 -5.183594 C 1.832031 -6.136719 1.34375 -6.757812 0.445312 -6.945312 L 0.445312 -0.183594 C 0.445312 -0.0664062 0.507812 0 0.628906 0 Z M 1.648438 0"/></g><clipPath id="e"><path d="M 0.59375 24 L 7 24 L 7 32 L 0.59375 32 Z M 0.59375 24"/></clipPath></defs><g fill="#FF3F71"><use x=".785" y="21.553" xmlns:xlink="http://www.w3.org/1999/xlink" xlink:href="#a" xlink:type="simple" xlink:actuate="onLoad" xlink:show="embed"/></g><g fill="#FF3F71"><use x="20.036" y="21.553" xmlns:xlink="http://www.w3.org/1999/xlink" xlink:href="#b" xlink:type="simple" xlink:actuate="onLoad" xlink:show="embed"/></g><g fill="#FF3F71"><use x="41.209" y="21.553" xmlns:xlink="http://www.w3.org/1999/xlink" xlink:href="#c" xlink:type="simple" xlink:actuate="onLoad" xlink:show="embed"/></g><g fill="#FF3F71"><use x="52.613" y="21.553" xmlns:xlink="http://www.w3.org/1999/xlink" xlink:href="#a" xlink:type="simple" xlink:actuate="onLoad" xlink:show="embed"/></g><g fill="#FF3F71"><use x="71.864" y="21.553" xmlns:xlink="http://www.w3.org/1999/xlink" xlink:href="#b" xlink:type="simple" xlink:actuate="onLoad" xlink:show="embed"/></g><g fill="#FF3F71"><use x="93.038" y="21.553" xmlns:xlink="http://www.w3.org/1999/xlink" xlink:href="#c" xlink:type="simple" xlink:actuate="onLoad" xlink:show="embed"/></g><g fill="#FF3F71"><use x="104.442" y="21.553" xmlns:xlink="http://www.w3.org/1999/xlink" xlink:href="#d" xlink:type="simple" xlink:actuate="onLoad" xlink:show="embed"/></g><g clip-path="url(#e)"><g fill="#EBEBEB"><use x=".785" y="31.272" xmlns:xlink="http://www.w3.org/1999/xlink" xlink:href="#f" xlink:type="simple" xlink:actuate="onLoad" xlink:show="embed"/></g></g><g fill="#EBEBEB"><use x="6.692" y="31.272" xmlns:xlink="http://www.w3.org/1999/xlink" xlink:href="#g" xlink:type="simple" xlink:actuate="onLoad" xlink:show="embed"/></g><g fill="#EBEBEB"><use x="9.099" y="31.272" xmlns:xlink="http://www.w3.org/1999/xlink" xlink:href="#h" xlink:type="simple" xlink:actuate="onLoad" xlink:show="embed"/></g><g fill="#EBEBEB"><use x="14.136" y="31.272" xmlns:xlink="http://www.w3.org/1999/xlink" xlink:href="#i" xlink:type="simple" xlink:actuate="onLoad" xlink:show="embed"/></g><g fill="#EBEBEB"><use x="17.608" y="31.272" xmlns:xlink="http://www.w3.org/1999/xlink" xlink:href="#j" xlink:type="simple" xlink:actuate="onLoad" xlink:show="embed"/></g><g fill="#EBEBEB"><use x="22.793" y="31.272" xmlns:xlink="http://www.w3.org/1999/xlink" xlink:href="#k" xlink:type="simple" xlink:actuate="onLoad" xlink:show="embed"/></g><g fill="#EBEBEB"><use x="26.015" y="31.272" xmlns:xlink="http://www.w3.org/1999/xlink" xlink:href="#l" xlink:type="simple" xlink:actuate="onLoad" xlink:show="embed"/></g><g fill="#EBEBEB"><use x="31.172" y="31.272" xmlns:xlink="http://www.w3.org/1999/xlink" xlink:href="#m" xlink:type="simple" xlink:actuate="onLoad" xlink:show="embed"/></g><g fill="#EBEBEB"><use x="35.959" y="31.272" xmlns:xlink="http://www.w3.org/1999/xlink" xlink:href="#m" xlink:type="simple" xlink:actuate="onLoad" xlink:show="embed"/></g><g fill="#EBEBEB"><use x="40.745" y="31.272" xmlns:xlink="http://www.w3.org/1999/xlink" xlink:href="#n" xlink:type="simple" xlink:actuate="onLoad" xlink:show="embed"/></g><g fill="#EBEBEB"><use x="42.968" y="31.272" xmlns:xlink="http://www.w3.org/1999/xlink" xlink:href="#j" xlink:type="simple" xlink:actuate="onLoad" xlink:show="embed"/></g><g fill="#EBEBEB"><use x="48.152" y="31.272" xmlns:xlink="http://www.w3.org/1999/xlink" xlink:href="#o" xlink:type="simple" xlink:actuate="onLoad" xlink:show="embed"/></g><g fill="#EBEBEB"><use x="53.152" y="31.272" xmlns:xlink="http://www.w3.org/1999/xlink" xlink:href="#p" xlink:type="simple" xlink:actuate="onLoad" xlink:show="embed"/></g><g fill="#EBEBEB"><use x="58.698" y="31.272" xmlns:xlink="http://www.w3.org/1999/xlink" xlink:href="#q" xlink:type="simple" xlink:actuate="onLoad" xlink:show="embed"/></g><g fill="#EBEBEB"><use x="60.985" y="31.272" xmlns:xlink="http://www.w3.org/1999/xlink" xlink:href="#g" xlink:type="simple" xlink:actuate="onLoad" xlink:show="embed"/></g><g fill="#EBEBEB"><use x="63.392" y="31.272" xmlns:xlink="http://www.w3.org/1999/xlink" xlink:href="#r" xlink:type="simple" xlink:actuate="onLoad" xlink:show="embed"/></g><g fill="#EBEBEB"><use x="71.549" y="31.272" xmlns:xlink="http://www.w3.org/1999/xlink" xlink:href="#l" xlink:type="simple" xlink:actuate="onLoad" xlink:show="embed"/></g><g fill="#EBEBEB"><use x="76.706" y="31.272" xmlns:xlink="http://www.w3.org/1999/xlink" xlink:href="#s" xlink:type="simple" xlink:actuate="onLoad" xlink:show="embed"/></g><g fill="#EBEBEB"><use x="82.243" y="31.272" xmlns:xlink="http://www.w3.org/1999/xlink" xlink:href="#g" xlink:type="simple" xlink:actuate="onLoad" xlink:show="embed"/></g><g fill="#EBEBEB"><use x="84.65" y="31.272" xmlns:xlink="http://www.w3.org/1999/xlink" xlink:href="#t" xlink:type="simple" xlink:actuate="onLoad" xlink:show="embed"/></g><g fill="#EBEBEB"><use x="90.493" y="31.272" xmlns:xlink="http://www.w3.org/1999/xlink" xlink:href="#l" xlink:type="simple" xlink:actuate="onLoad" xlink:show="embed"/></g><g fill="#EBEBEB"><use x="95.65" y="31.272" xmlns:xlink="http://www.w3.org/1999/xlink" xlink:href="#m" xlink:type="simple" xlink:actuate="onLoad" xlink:show="embed"/></g><g fill="#EBEBEB"><use x="100.437" y="31.272" xmlns:xlink="http://www.w3.org/1999/xlink" xlink:href="#n" xlink:type="simple" xlink:actuate="onLoad" xlink:show="embed"/></g><g fill="#EBEBEB"><use x="102.659" y="31.272" xmlns:xlink="http://www.w3.org/1999/xlink" xlink:href="#u" xlink:type="simple" xlink:actuate="onLoad" xlink:show="embed"/></g><g fill="#EBEBEB"><use x="108.205" y="31.272" xmlns:xlink="http://www.w3.org/1999/xlink" xlink:href="#o" xlink:type="simple" xlink:actuate="onLoad" xlink:show="embed"/></g><g fill="#EBEBEB"><use x="113.204" y="31.272" xmlns:xlink="http://www.w3.org/1999/xlink" xlink:href="#l" xlink:type="simple" xlink:actuate="onLoad" xlink:show="embed"/></g><g fill="#EBEBEB"><use x="118.362" y="31.272" xmlns:xlink="http://www.w3.org/1999/xlink" xlink:href="#i" xlink:type="simple" xlink:actuate="onLoad" xlink:show="embed"/></g></svg>